<svg xmlns="http://www.w3.org/2000/svg" xmlns:xlink="http://www.w3.org/1999/xlink" width="26" height="26" viewBox="0 0 26 26">
  <defs>
    <filter id="사각형_7" x="-30" y="8" width="86" height="79" filterUnits="userSpaceOnUse">
      <feOffset dy="40" input="SourceAlpha"/>
      <feGaussianBlur stdDeviation="10" result="blur"/>
      <feFlood flood-opacity="0.161"/>
      <feComposite operator="in" in2="blur"/>
      <feComposite in="SourceGraphic"/>
    </filter>
    <clipPath id="clip-chat">
      <rect width="26" height="26"/>
    </clipPath>
  </defs>
  <g id="chat" class="cls-1" style="clip-path: url(#clip-chat);">
    <rect class="cls-5" width="26" height="26" style="fill: #fff;"/>
    <g class="cls-6" transform="matrix(1, 0, 0, 1, 0, 0)" style="filter: url(#사각형_7);">
      <g id="사각형_7-2" data-name="사각형 7" class="cls-2" transform="translate(26 17) rotate(180)" style="fill: none; stroke: #bcc3c7;">
        <path class="cls-3" d="M0,0H21.5A4.5,4.5,0,0,1,26,4.5v0A4.5,4.5,0,0,1,21.5,9H4.5A4.5,4.5,0,0,1,0,4.5V0A0,0,0,0,1,0,0Z" style="stroke: none;"/>
        <path class="cls-4" d="M.516.5H21.5a4,4,0,0,1,4,4v0a4,4,0,0,1-4,4H4.5a4,4,0,0,1-4-4V.516A.016.016,0,0,1,.516.5Z" style="fill: none;"/>
      </g>
    </g>
  </g>
</svg>
