<svg xmlns="http://www.w3.org/2000/svg" xmlns:xlink="http://www.w3.org/1999/xlink" width="26" height="26" viewBox="0 0 26 26">
  <defs>
    <clipPath id="clip-profile">
      <rect width="26" height="26"/>
    </clipPath>
  </defs>
  <g id="profile" class="cls-1" style="clip-path: url(#clip-profile);">
    <rect class="cls-7" width="26" height="26" style="fill: #fff;"/>
    <g id="타원_1" data-name="타원 1" class="cls-2" transform="translate(9 3.843)" style="fill: none; stroke: #bcc3c7;">
      <circle class="cls-4" cx="4" cy="4" r="4" style="stroke: none;"/>
      <circle class="cls-5" cx="4" cy="4" r="3.5" style="fill: none;"/>
    </g>
    <g id="패스_3" data-name="패스 3" class="cls-3" transform="translate(5 10.843)" style="fill: #fff;">
      <path class="cls-4" d="M 8 10.8137092590332 C 5.991219997406006 10.8137092590332 4.04951000213623 10.52297878265381 2.672760009765625 10.01607894897461 C 1.681560039520264 9.651128768920898 0.5 9.005108833312988 0.5 7.999999046325684 C 0.5 3.864488840103149 3.864490032196045 0.4999988675117493 8 0.4999988675117493 C 12.13551044464111 0.4999988675117493 15.5 3.864488840103149 15.5 7.999999046325684 C 15.5 9.005108833312988 14.31844043731689 9.651128768920898 13.32723999023438 10.01607894897461 C 11.95048999786377 10.52297878265381 10.00877952575684 10.8137092590332 8 10.8137092590332 Z" style="stroke: none;"/>
      <path class="cls-6" d="M 8 0.9999990463256836 C 4.140190124511719 0.9999990463256836 1 4.140189170837402 1 7.999999046325684 C 1 8.782848358154297 2.290619850158691 9.342558860778809 2.84550952911377 9.546869277954102 C 4.169119834899902 10.03420829772949 6.047860145568848 10.3137092590332 8 10.3137092590332 C 12.18723011016846 10.3137092590332 15 9.117359161376953 15 7.999999046325684 C 15 4.140189170837402 11.85980987548828 0.9999990463256836 8 0.9999990463256836 M 8 -9.5367431640625e-07 C 12.41827964782715 -9.5367431640625e-07 16 3.581718444824219 16 7.999999046325684 C 16 10.20913887023926 12 11.3137092590332 8 11.3137092590332 C 4 11.3137092590332 0 10.20913887023926 0 7.999999046325684 C 0 3.581718444824219 3.581720352172852 -9.5367431640625e-07 8 -9.5367431640625e-07 Z" style="fill: #bcc3c7; stroke: none;"/>
    </g>
  </g>
</svg>
